<svg width="36" height="36" viewBox="0 0 36 36" fill="none" xmlns="http://www.w3.org/2000/svg">
<circle cx="18" cy="18" r="18" fill="#936DFF"/>
<path d="M23.0949 12.8807C22.9648 11.7771 22.4372 10.9205 21.5122 10.3106C20.5872 9.70076 19.4526 9.39583 18.1084 9.39583C17.1256 9.39583 16.2656 9.55556 15.5285 9.875C14.7986 10.1944 14.2276 10.6337 13.8157 11.1927C13.411 11.7517 13.2087 12.387 13.2087 13.0985C13.2087 13.6938 13.3496 14.2056 13.6314 14.634C13.9205 15.0551 14.2891 15.4072 14.7371 15.6903C15.1852 15.9662 15.6549 16.1949 16.1463 16.3764C16.6378 16.5507 17.0894 16.6922 17.5014 16.8011L19.7561 17.411C20.3342 17.5634 20.9774 17.774 21.6856 18.0426C22.4011 18.3112 23.084 18.6779 23.7344 19.1425C24.3921 19.5999 24.9341 20.188 25.3604 20.9067C25.7868 21.6255 26 22.5076 26 23.553C26 24.7582 25.6856 25.8472 25.0569 26.8201C24.4354 27.7929 23.5248 28.5661 22.3252 29.1397C21.1328 29.7132 19.6838 30 17.9783 30C16.3884 30 15.0117 29.7423 13.8482 29.2268C12.692 28.7113 11.7814 27.9926 11.1165 27.0705C10.4589 26.1485 10.0867 25.0777 10 23.858H12.7751C12.8473 24.7001 13.1292 25.3971 13.6206 25.9489C14.1192 26.4934 14.748 26.8999 15.5068 27.1686C16.2728 27.4299 17.0967 27.5606 17.9783 27.5606C19.0045 27.5606 19.9259 27.3936 20.7425 27.0597C21.5592 26.7184 22.206 26.2465 22.6829 25.6439C23.1599 25.0341 23.3984 24.3226 23.3984 23.5095C23.3984 22.7689 23.1924 22.1664 22.7805 21.7017C22.3686 21.2371 21.8266 20.8595 21.1545 20.5691C20.4824 20.2787 19.7561 20.0246 18.9756 19.8068L16.2439 19.0227C14.5095 18.5218 13.1364 17.8067 12.1247 16.8774C11.1129 15.9481 10.607 14.732 10.607 13.2292C10.607 11.9804 10.9431 10.8914 11.6152 9.96212C12.2945 9.02557 13.2051 8.29956 14.3469 7.78409C15.4959 7.26136 16.7787 7 18.1951 7C19.626 7 20.8979 7.25773 22.0108 7.7732C23.1238 8.28141 24.0054 8.97838 24.6558 9.86411C25.3135 10.7498 25.6603 11.7554 25.6965 12.8807H23.0949Z" fill="white"/>
</svg>
